<svg xmlns="http://www.w3.org/2000/svg" width="29.409" height="29.409" viewBox="0 0 29.409 29.409">
  <g>
    <path fill="none" stroke="rgb(0,123,255)" stroke-dasharray="0 0 0 0" stroke-linecap="round" stroke-linejoin="miter" stroke-width="2" d="M11.7046301 14.67320519V7.7046226c0-1.65685086 1.34315-2.9999925 3-2.9999925s3 1.34314164 3 2.9999925v1.0028475"/>
    <path fill="none" stroke="rgb(0,123,255)" stroke-dasharray="0 0 0 0" stroke-linecap="round" stroke-linejoin="miter" stroke-width="2" d="M17.7046301 14.7063051v6.9982325c0 1.65684587-1.34315 2.9999925-3 2.9999925s-3-1.34314663-3-2.9999925v-1.01499745"/>
    <path fill="none" stroke="rgb(0,123,255)" stroke-dasharray="0 0 0 0" stroke-linecap="round" stroke-linejoin="miter" stroke-width="2" d="M14.7046301 17.7045976h-7.007925c-1.65248 0-2.992075-1.34314663-2.992075-2.9999925 0-1.65684585 1.339595-2.9999925 2.992075-2.9999925h1.002225"/>
    <path fill="none" stroke="rgb(0,123,255)" stroke-dasharray="0 0 0 0" stroke-linecap="round" stroke-linejoin="miter" stroke-width="2" d="M14.7046301 11.7046126h6.9944c1.65995 0 3.0056 1.34314665 3.0056 2.9999925 0 1.65684587-1.34565 2.9999925-3.0056 2.9999925h-.96125"/>
  </g>
</svg>
