<svg xmlns="http://www.w3.org/2000/svg" width="21" height="16" viewBox="0 0 21 16">
  <g>
    <path fill="none" stroke="rgb(255,255,255)" stroke-dasharray="0 0 0 0" stroke-linecap="butt" stroke-linejoin="round" stroke-width="2" d="M4.032829 1.2072C6.80443263 1.06905 8.96013546 1 10.4999875 1c1.54005203 0 3.69655486.0691 6.46950851.20725h0c1.50105198.0748 2.71510357 1.2487 2.84030374 2.74635C19.93659992 5.4706 20 6.8067 20 7.9619c0 1.1694-.06495009 2.5241-.19490026 4.0642h0c-.12480016 1.47905-1.31245172 2.6445-2.79360367 2.74135C14.64079295 14.9225 12.47029009 15 10.4999875 15c-1.9700026 0-4.13970545-.0775-6.50910856-.23245h0c-1.48064195-.09685-2.66805352-1.2616-2.79346368-2.74005C1.06580509 10.4759 1 9.1207 1 7.9619c0-1.14485.06423008-2.4814.19270025-4.0097h.000005C1.31854542 2.45515 2.53234702 1.282 4.032829 1.2072h0z"/>
    <path fill="none" stroke="rgb(255,255,255)" stroke-dasharray="0 0 0 0" stroke-linecap="butt" stroke-linejoin="round" stroke-width="2" d="M9.00098553 5.8046v4.3984c0 .2367.19190025.42855.42855056.42855.08405011 0 .16625022-.0247.23635031-.071l3.29880434-2.1803c.19745026-.1305.25170033-.3964.12120016-.59385-.03120004-.0472-.0714501-.08775-.11840015-.11935L9.6686864 5.44895c-.19640026-.1321-.46270061-.0799-.59480079.1165-.04750006.0707-.0729001.15395-.0729001.23915h0z"/>
  </g>
</svg>
